<?xml version="1.0" encoding="utf-8"?>
<!-- Generator: Adobe Illustrator 19.0.1, SVG Export Plug-In . SVG Version: 6.00 Build 0)  -->
<svg version="1.1" id="Layer_1" xmlns="http://www.w3.org/2000/svg" xmlns:xlink="http://www.w3.org/1999/xlink" x="0px" y="0px"
	 viewBox="0 0 100 100" style="enable-background:new 0 0 100 100;" xml:space="preserve">
<style type="text/css">
	.st0{fill:#78B1E0;}
	.st1{fill:#FFFFFF;}
	.st2{fill:#FFFFFF;stroke:#FFFFFF;stroke-miterlimit:10;}
</style>
<g>
	<path class="st0" d="M85.7,98H14.4c-6.6,0-12-5.4-12-12V14.7c0-6.6,5.4-12,12-12h71.4c6.6,0,12,5.4,12,12V86
		C97.7,92.6,92.3,98,85.7,98z"/>
	<path class="st1" d="M28,36.7"/>
	<path class="st2" d="M2.4,50.3"/>
	<polyline class="st2" points="11,69.7 76.7,29.4 17.3,98 	"/>
	<path class="st2" d="M66.3,25"/>
	<path class="st2" d="M70.2,92.8"/>
	<path class="st2" d="M61.3,31.7"/>
	<polyline class="st2" points="29.6,83.8 2.4,29.4 16,100 	"/>
	<path class="st2" d="M63.7,37.3"/>
	<polyline class="st2" points="79,82 97.7,58.3 84.3,96.5 	"/>
	<polyline class="st2" points="88.4,99 41.3,2.7 76.7,99 	"/>
</g>
</svg>
