<?xml version="1.0" encoding="utf-8"?>
<!-- Generator: Adobe Illustrator 19.0.1, SVG Export Plug-In . SVG Version: 6.00 Build 0)  -->
<svg version="1.1" id="Layer_1" xmlns="http://www.w3.org/2000/svg" xmlns:xlink="http://www.w3.org/1999/xlink" x="0px" y="0px"
	 viewBox="0 0 100 50" style="enable-background:new 0 0 100 50;" xml:space="preserve">
<style type="text/css">
	.st0{fill:#5B5C5C;}
	.st1{fill:#FFFFFF;}
</style>
<g>
	<path class="st0" d="M28,9.6L33,22.2l1.1,4.1h0.1l0.8-4.2l3.8-12.5h3.3l-7.2,22h-1.7l-5.6-14.2l-0.8-3.5h-0.1l-0.9,3.6l-5.4,14.2
		h-1.7l-7.5-22h3.7l4.3,12.5l0.7,4.2h0l1-4.3l4.6-12.4H28z"/>
	<path class="st0" d="M45.4,11.2c1.1-0.7,2.4-1.1,3.8-1.5c1.4-0.3,3-0.5,4.5-0.5c1.5,0,2.7,0.2,3.6,0.6c0.9,0.4,1.6,0.9,2.1,1.6
		c0.5,0.6,0.8,1.4,0.9,2.1c0.2,0.8,0.2,1.5,0.2,2.3c0,1.7,0,3.4-0.1,5s-0.1,3.2-0.1,4.6c0,1.1,0,2.1,0.1,3s0.2,1.8,0.5,2.6h-2.5
		l-0.9-3h-0.2c-0.3,0.4-0.6,0.8-1,1.2c-0.4,0.4-0.9,0.7-1.4,1S53.7,31,53,31.2s-1.5,0.3-2.5,0.3c-0.9,0-1.8-0.1-2.6-0.4
		c-0.8-0.3-1.5-0.7-2-1.2c-0.6-0.5-1-1.2-1.4-1.9c-0.3-0.7-0.5-1.6-0.5-2.5c0-1.3,0.3-2.3,0.8-3.2c0.5-0.8,1.2-1.5,2.2-2
		c0.9-0.5,2.1-0.9,3.4-1.1c1.3-0.2,2.7-0.3,4.3-0.3c0.4,0,0.8,0,1.2,0s0.8,0,1.2,0.1c0.1-0.9,0.1-1.6,0.1-2.3c0-1.6-0.3-2.7-0.9-3.3
		c-0.6-0.6-1.8-0.9-3.4-0.9c-0.5,0-1,0-1.6,0.1c-0.6,0.1-1.1,0.2-1.7,0.3c-0.6,0.1-1.1,0.3-1.7,0.5c-0.5,0.2-1,0.4-1.4,0.6
		L45.4,11.2z M51.5,28.4c0.8,0,1.5-0.1,2.2-0.3s1.2-0.5,1.6-0.8c0.5-0.3,0.8-0.7,1.1-1.1c0.3-0.4,0.5-0.8,0.7-1.2v-3.6
		c-0.4,0-0.8,0-1.2-0.1c-0.4,0-0.8,0-1.2,0c-0.9,0-1.8,0.1-2.6,0.2s-1.6,0.3-2.2,0.6c-0.6,0.3-1.2,0.6-1.5,1.1s-0.6,1.1-0.6,1.8
		c0,1,0.4,1.8,1.1,2.5C49.4,28.1,50.4,28.4,51.5,28.4z"/>
	<path class="st0" d="M67,3.1c0-0.7,0.2-1.2,0.7-1.7c0.4-0.5,1-0.7,1.7-0.7s1.3,0.2,1.8,0.7c0.5,0.5,0.7,1,0.7,1.7
		c0,0.7-0.2,1.2-0.7,1.6c-0.5,0.4-1.1,0.6-1.8,0.6s-1.3-0.2-1.7-0.6C67.3,4.3,67,3.7,67,3.1z M67.8,9.6h3.4v21.5h-3.4V9.6z"/>
	<path class="st0" d="M88.7,12.9c-0.9-0.3-1.7-0.4-2.5-0.4c-1.2,0-2.2,0.3-2.9,1c-0.7,0.7-1.2,1.5-1.3,2.6v15.1h-3.4V9.6H81l0.6,2.6
		h0.2c0.5-1,1.2-1.7,2-2.3c0.8-0.5,1.7-0.8,2.9-0.8c0.8,0,1.8,0.1,2.8,0.4L88.7,12.9z"/>
</g>
<polygon class="st1" points="96.8,15.2 3.2,28.2 9.7,41.2 "/>
<polyline class="st0" points="82,17.2 96.6,15.3 82,19.6 "/>
<path class="st1" d="M32.7,32"/>
<polyline class="st0" points="41.4,31.7 9.7,41.2 5.1,32 "/>
<path d="M31.2,31.5"/>
<path class="st0" d="M17.6,31.7"/>
<path class="st0" d="M80.4,48"/>
<g>
	<g>
		<path class="st0" d="M39.5,35.1h5.4v1.6h-3.6v2.1h3.3v1.6h-3.3v2.2H45v1.6h-5.5V35.1z"/>
		<path class="st0" d="M51.3,35.1h1.7V41c0,0.6-0.1,1.1-0.2,1.5s-0.4,0.8-0.6,1.1c-0.3,0.3-0.6,0.5-1,0.6s-0.8,0.2-1.3,0.2
			c-2.3,0-3.5-1.1-3.5-3.2v-6.1h1.8v5.7c0,0.4,0,0.7,0.1,0.9s0.2,0.4,0.3,0.6s0.3,0.3,0.5,0.3c0.2,0.1,0.5,0.1,0.7,0.1
			c0.5,0,0.9-0.2,1.2-0.5c0.2-0.3,0.4-0.8,0.4-1.5V35.1z"/>
		<path class="st0" d="M54.5,35.2c0.2,0,0.4-0.1,0.6-0.1c0.2,0,0.5-0.1,0.7-0.1s0.5,0,0.7,0c0.2,0,0.4,0,0.6,0c0.4,0,0.8,0,1.3,0.1
			c0.4,0.1,0.8,0.2,1.1,0.4s0.6,0.5,0.8,0.8c0.2,0.3,0.3,0.8,0.3,1.3c0,0.7-0.2,1.4-0.5,1.8c-0.3,0.5-0.8,0.8-1.4,1l0.6,0.4l2.1,3.5
			h-2.1l-2.1-3.6l-0.9-0.2v3.7h-1.8V35.2z M57.2,36.6c-0.2,0-0.4,0-0.5,0s-0.3,0-0.4,0.1v2.6H57c0.5,0,0.9-0.1,1.2-0.3
			c0.3-0.2,0.4-0.6,0.4-1.1c0-0.4-0.1-0.7-0.4-0.9C58,36.7,57.7,36.6,57.2,36.6z"/>
		<path class="st0" d="M61.6,39.7c0-1.5,0.3-2.7,1-3.5c0.7-0.8,1.6-1.2,2.9-1.2c0.6,0,1.2,0.1,1.7,0.3c0.5,0.2,0.9,0.5,1.2,1
			c0.3,0.4,0.6,0.9,0.7,1.5c0.2,0.6,0.2,1.2,0.2,1.9c0,1.5-0.3,2.7-1,3.5c-0.7,0.8-1.6,1.2-2.9,1.2c-0.7,0-1.2-0.1-1.7-0.3
			c-0.5-0.2-0.9-0.5-1.2-1s-0.6-0.9-0.7-1.5C61.7,41,61.6,40.4,61.6,39.7z M63.5,39.7c0,0.5,0,0.9,0.1,1.3c0.1,0.4,0.2,0.7,0.4,1
			c0.2,0.3,0.4,0.5,0.6,0.7c0.3,0.2,0.5,0.2,0.9,0.2c0.6,0,1.1-0.2,1.5-0.7c0.3-0.5,0.5-1.3,0.5-2.4c0-0.4,0-0.9-0.1-1.2
			c-0.1-0.4-0.2-0.7-0.3-1c-0.2-0.3-0.4-0.5-0.6-0.7c-0.3-0.2-0.6-0.2-0.9-0.2c-0.6,0-1.1,0.3-1.5,0.8S63.5,38.6,63.5,39.7z"/>
		<path class="st0" d="M70.6,35.2c0.4-0.1,0.8-0.1,1.2-0.2s0.9-0.1,1.3-0.1c0.5,0,0.9,0,1.4,0.1c0.5,0.1,0.9,0.2,1.2,0.4
			c0.4,0.2,0.7,0.5,0.9,0.9c0.2,0.4,0.3,0.9,0.3,1.5c0,0.6-0.1,1.1-0.3,1.4c-0.2,0.4-0.5,0.7-0.8,1c-0.3,0.3-0.7,0.4-1.1,0.5
			c-0.4,0.1-0.9,0.2-1.3,0.2c0,0-0.1,0-0.2,0s-0.2,0-0.3,0c-0.1,0-0.2,0-0.3,0c-0.1,0-0.2,0-0.2,0v3.1h-1.8V35.2z M73.2,36.5
			c-0.2,0-0.3,0-0.5,0c-0.2,0-0.3,0-0.4,0v3c0,0,0.1,0,0.2,0c0.1,0,0.1,0,0.2,0c0.1,0,0.2,0,0.2,0c0.1,0,0.1,0,0.2,0
			c0.2,0,0.5,0,0.7-0.1c0.2,0,0.4-0.1,0.6-0.2c0.2-0.1,0.3-0.3,0.4-0.5S75,38.3,75,38c0-0.3-0.1-0.5-0.2-0.7
			c-0.1-0.2-0.2-0.3-0.4-0.4c-0.2-0.1-0.4-0.2-0.6-0.2S73.5,36.5,73.2,36.5z"/>
		<path class="st0" d="M78,35.1h5.4v1.6h-3.6v2.1h3.3v1.6h-3.3v2.2h3.7v1.6H78V35.1z"/>
	</g>
</g>
</svg>
