<?xml version="1.0" encoding="utf-8"?>
<!-- Generator: Adobe Illustrator 19.0.1, SVG Export Plug-In . SVG Version: 6.00 Build 0)  -->
<svg version="1.1" id="Layer_1" xmlns="http://www.w3.org/2000/svg" xmlns:xlink="http://www.w3.org/1999/xlink" x="0px" y="0px"
	 viewBox="0 0 200 100" style="enable-background:new 0 0 200 100;" xml:space="preserve">
<style type="text/css">
	.st0{fill:#78B1E0;}
	.st1{fill:#FFFFFF;}
	.st2{fill:#FFFFFF;stroke:#FFFFFF;stroke-miterlimit:10;}
	.st3{fill:#5B5C5C;}
</style>
<g>
	<path class="st0" d="M85.5,97.7H14.1c-6.6,0-12-5.4-12-12V14.3c0-6.6,5.4-12,12-12h71.4c6.6,0,12,5.4,12,12v71.4
		C97.5,92.3,92.1,97.7,85.5,97.7z"/>
	<path class="st1" d="M27.7,35.3"/>
	<path class="st2" d="M2.1,49"/>
	<polyline class="st2" points="10.8,68.3 76.4,28 17.1,96.7 	"/>
	<path class="st2" d="M66.1,23.7"/>
	<path class="st2" d="M70,91.5"/>
	<path class="st2" d="M61,30.3"/>
	<polyline class="st2" points="29.3,82.5 2.1,28 15.7,98.7 	"/>
	<path class="st2" d="M63.4,36"/>
	<polyline class="st2" points="78.7,80.7 97.5,57 84.1,95.2 	"/>
	<polyline class="st2" points="88.1,97.7 41.1,1.3 76.4,97.7 	"/>
</g>
<g>
	<path class="st0" d="M122.3,45l4.9,12.6l1.1,4.1h0.1l0.8-4.2L133,45h3.3l-7.2,22h-1.7l-5.6-14.2l-0.8-3.5h-0.1l-0.9,3.6l-5.4,14.1
		h-1.7l-7.5-22h3.7l4.3,12.5l0.7,4.2h0l1-4.3l4.6-12.4H122.3z"/>
	<path class="st0" d="M139.6,46.6c1.1-0.7,2.4-1.1,3.8-1.5c1.4-0.3,3-0.5,4.5-0.5c1.5,0,2.7,0.2,3.6,0.6c0.9,0.4,1.6,0.9,2.1,1.6
		c0.5,0.6,0.8,1.4,0.9,2.1s0.2,1.5,0.2,2.3c0,1.7,0,3.4-0.1,5c-0.1,1.6-0.1,3.2-0.1,4.6c0,1.1,0,2.1,0.1,3s0.2,1.8,0.5,2.6h-2.5
		l-0.9-3h-0.2c-0.3,0.4-0.6,0.8-1,1.2c-0.4,0.4-0.9,0.7-1.4,1s-1.2,0.6-1.9,0.8c-0.7,0.2-1.5,0.3-2.5,0.3c-0.9,0-1.8-0.1-2.6-0.4
		c-0.8-0.3-1.5-0.7-2-1.2c-0.6-0.5-1-1.2-1.4-1.9c-0.3-0.7-0.5-1.6-0.5-2.5c0-1.3,0.3-2.3,0.8-3.2c0.5-0.8,1.2-1.5,2.2-2
		c0.9-0.5,2-0.9,3.4-1.1c1.3-0.2,2.7-0.3,4.3-0.3c0.4,0,0.8,0,1.2,0s0.8,0,1.2,0.1c0.1-0.9,0.1-1.6,0.1-2.3c0-1.6-0.3-2.7-0.9-3.3
		c-0.6-0.6-1.8-0.9-3.4-0.9c-0.5,0-1,0-1.6,0.1c-0.6,0.1-1.1,0.2-1.7,0.3c-0.6,0.1-1.1,0.3-1.7,0.5c-0.5,0.2-1,0.4-1.4,0.6
		L139.6,46.6z M145.7,63.8c0.8,0,1.5-0.1,2.1-0.3c0.6-0.2,1.2-0.5,1.6-0.8c0.5-0.3,0.8-0.7,1.1-1.1c0.3-0.4,0.5-0.8,0.7-1.2v-3.6
		c-0.4,0-0.8,0-1.2-0.1c-0.4,0-0.8,0-1.2,0c-0.9,0-1.8,0.1-2.6,0.2c-0.8,0.1-1.6,0.3-2.2,0.6c-0.6,0.3-1.2,0.6-1.5,1.1
		c-0.4,0.5-0.6,1.1-0.6,1.8c0,1,0.4,1.8,1.1,2.5C143.7,63.5,144.6,63.8,145.7,63.8z"/>
	<path class="st0" d="M161.3,38.4c0-0.7,0.2-1.2,0.7-1.7c0.4-0.5,1-0.7,1.7-0.7c0.7,0,1.3,0.2,1.8,0.7c0.5,0.5,0.7,1,0.7,1.7
		c0,0.7-0.2,1.2-0.7,1.6c-0.5,0.4-1.1,0.6-1.8,0.6c-0.7,0-1.3-0.2-1.7-0.6C161.5,39.6,161.3,39.1,161.3,38.4z M162,45h3.4v21.5H162
		V45z"/>
	<path class="st0" d="M183,48.3c-0.9-0.3-1.7-0.4-2.5-0.4c-1.2,0-2.2,0.3-2.9,1c-0.7,0.7-1.2,1.5-1.3,2.6v15.1h-3.4V45h2.4l0.6,2.6
		h0.2c0.5-1,1.2-1.7,2-2.3c0.8-0.5,1.7-0.8,2.9-0.8c0.8,0,1.8,0.1,2.8,0.4L183,48.3z"/>
</g>
<g>
	<path class="st3" d="M119.6,85.3c-0.6,0.5-1.4,0.9-2.4,1.2c-1,0.3-2,0.4-3.1,0.4c-1.2,0-2.3-0.2-3.2-0.6c-0.9-0.4-1.6-1-2.2-1.7
		c-0.6-0.7-1-1.6-1.3-2.6s-0.4-2.2-0.4-3.5c0-2.7,0.6-4.8,1.8-6.2c1.2-1.4,3-2.1,5.2-2.1c0.7,0,1.5,0.1,2.2,0.2
		c0.7,0.2,1.4,0.5,2,0.9s1,1.1,1.4,1.9c0.4,0.8,0.5,1.9,0.5,3.2c0,0.7-0.1,1.5-0.2,2.3h-10.3c0,0.9,0.1,1.8,0.3,2.5
		c0.2,0.7,0.5,1.3,0.9,1.8c0.4,0.5,0.9,0.9,1.6,1.2c0.7,0.3,1.4,0.4,2.4,0.4c0.7,0,1.5-0.1,2.2-0.4s1.3-0.6,1.6-0.9L119.6,85.3z
		 M114.1,72.5c-1.3,0-2.3,0.3-3,1c-0.8,0.7-1.2,1.8-1.4,3.4h7.9c0-1.6-0.3-2.8-0.9-3.4S115.2,72.5,114.1,72.5z"/>
	<path class="st3" d="M126.5,70.6v9.1c0,0.8,0,1.6,0.1,2.2c0.1,0.6,0.3,1.2,0.5,1.6c0.2,0.4,0.6,0.7,1,0.9s0.9,0.3,1.5,0.3
		c0.6,0,1.1-0.1,1.5-0.3c0.4-0.2,0.8-0.4,1.2-0.8c0.4-0.3,0.7-0.7,0.9-1.1c0.3-0.4,0.5-0.9,0.7-1.3V70.6h2.6v11.5
		c0,0.8,0,1.6,0.1,2.4c0.1,0.8,0.1,1.5,0.3,2.2h-1.8l-0.6-2.5h-0.2c-0.5,0.8-1.2,1.5-2,2.1s-1.9,0.8-3.2,0.8c-0.9,0-1.6-0.1-2.3-0.3
		s-1.2-0.6-1.6-1.1c-0.4-0.5-0.8-1.2-1-2.1c-0.2-0.9-0.3-2-0.3-3.3v-9.7H126.5z"/>
	<path class="st3" d="M149,73.1c-0.6-0.2-1.2-0.3-1.8-0.3c-0.9,0-1.6,0.3-2.2,0.8c-0.5,0.5-0.9,1.1-1,1.9v11.2h-2.6v-16h1.8l0.5,2
		h0.1c0.4-0.7,0.9-1.3,1.5-1.7c0.6-0.4,1.3-0.6,2.2-0.6c0.6,0,1.3,0.1,2.1,0.3L149,73.1z"/>
	<path class="st3" d="M151.4,78.6c0-2.7,0.6-4.8,1.8-6.2c1.2-1.4,2.9-2.2,5.2-2.2c1.2,0,2.2,0.2,3.1,0.6s1.6,1,2.2,1.7
		c0.6,0.7,1,1.6,1.3,2.7c0.3,1,0.4,2.2,0.4,3.4c0,2.7-0.6,4.8-1.8,6.2c-1.2,1.4-2.9,2.2-5.2,2.2c-1.2,0-2.2-0.2-3.1-0.6
		c-0.9-0.4-1.6-1-2.2-1.7c-0.6-0.7-1-1.6-1.3-2.7C151.6,81,151.4,79.9,151.4,78.6z M154.1,78.6c0,0.8,0.1,1.6,0.2,2.3
		c0.2,0.7,0.4,1.4,0.8,2c0.3,0.6,0.8,1,1.3,1.3c0.6,0.3,1.2,0.5,2,0.5c2.9,0,4.4-2,4.4-6.1c0-0.8-0.1-1.6-0.2-2.4
		c-0.2-0.7-0.4-1.4-0.8-2s-0.8-1-1.3-1.3c-0.6-0.3-1.2-0.5-2-0.5C155.5,72.4,154.1,74.5,154.1,78.6z"/>
	<path class="st3" d="M169.5,70.6h1.8l0.5,1.9h0.1c0.5-0.7,1.1-1.3,1.9-1.7c0.8-0.4,1.7-0.6,2.7-0.6c2.1,0,3.7,0.6,4.8,1.9
		s1.6,3.3,1.6,6.2c0,1.3-0.2,2.6-0.5,3.6c-0.4,1.1-0.8,2-1.5,2.7c-0.6,0.7-1.4,1.3-2.3,1.7c-0.9,0.4-1.9,0.6-3,0.6
		c-0.8,0-1.4,0-1.9-0.1c-0.5-0.1-1-0.3-1.5-0.5V93h-2.6V70.6z M175.9,72.5c-1.1,0-1.9,0.3-2.6,0.8s-1.1,1.4-1.3,2.6v7.9
		c0.4,0.3,0.8,0.5,1.3,0.7s1.1,0.2,2,0.2c1.5,0,2.6-0.5,3.5-1.6s1.3-2.7,1.3-4.8c0-0.9-0.1-1.7-0.2-2.4c-0.1-0.7-0.4-1.3-0.7-1.8
		c-0.3-0.5-0.8-0.9-1.3-1.2C177.3,72.6,176.7,72.5,175.9,72.5z"/>
	<path class="st3" d="M198.5,85.3c-0.6,0.5-1.4,0.9-2.4,1.2c-1,0.3-2,0.4-3.1,0.4c-1.2,0-2.3-0.2-3.2-0.6c-0.9-0.4-1.6-1-2.2-1.7
		c-0.6-0.7-1-1.6-1.3-2.6s-0.4-2.2-0.4-3.5c0-2.7,0.6-4.8,1.8-6.2c1.2-1.4,3-2.1,5.2-2.1c0.7,0,1.5,0.1,2.2,0.2
		c0.7,0.2,1.4,0.5,2,0.9c0.6,0.4,1,1.1,1.4,1.9s0.5,1.9,0.5,3.2c0,0.7-0.1,1.5-0.2,2.3h-10.3c0,0.9,0.1,1.8,0.3,2.5
		c0.2,0.7,0.5,1.3,0.9,1.8c0.4,0.5,0.9,0.9,1.6,1.2c0.7,0.3,1.4,0.4,2.4,0.4c0.7,0,1.5-0.1,2.2-0.4s1.3-0.6,1.6-0.9L198.5,85.3z
		 M193,72.5c-1.3,0-2.3,0.3-3,1c-0.8,0.7-1.2,1.8-1.4,3.4h7.9c0-1.6-0.3-2.8-0.9-3.4C195,72.8,194.1,72.5,193,72.5z"/>
</g>
</svg>
